<svg id="Capa_1" enable-background="new 0 0 512.963 512.963" height="512" viewBox="0 0 512.963 512.963" width="512" xmlns="http://www.w3.org/2000/svg"><g><path d="m437.502 75.817c-48.352-48.368-112.64-75.004-181.021-75.004-12.876 0-25.608.945-38.115 2.801-53.912 8.001-80.788 483.556-43.906 495.989 26.077 8.791 53.698 13.361 82.021 13.361 16.097 0 17.789-70.465 33.277-73.353 50.309-9.381 54.848-20.605 91.818-57.587 48.351-48.366 130.905-56.735 130.905-125.135s-26.627-132.705-74.979-181.072z" fill="#00c8c8"/><path d="m256.481.813c-.502 0-1.001.015-1.502.018v512.114c.501.003 1 .018 1.502.018 68.381 0 132.669-26.637 181.021-75.004 48.351-48.366 74.979-112.672 74.979-181.071s-26.628-132.704-74.979-181.07c-48.352-48.369-112.64-75.005-181.021-75.005z" fill="#00a0aa"/><path d="m224.099 9.035c-2.13-2.012-4.12-3.792-5.99-5.379-53.813 8.043-103.464 32.964-142.649 72.161-48.351 48.367-74.979 112.671-74.979 181.071s26.628 132.705 74.979 181.071c28.332 28.341 62.14 49.207 99.031 61.639l26.628-79.766c4.874-14.854 3.068-31.069-4.955-44.487l-26.899-44.989c-2.218-3.711-3.391-7.957-3.391-12.279v-25.198c0-6.722 2.852-13.172 7.824-17.696l34.74-31.61c14.038-12.773 20.364-32.253 16.51-50.838l-1.174-5.657c-1.352-6.516.003-13.108 3.815-18.563s9.536-8.994 16.119-9.966c26.253-3.876 46.051-26.811 46.051-53.348v-8.167c0-14.404-5.609-27.947-15.794-38.132z" fill="#bce339"/><path d="m512.481 256.888c0-.25-.008-.5-.009-.75-2.878-3.707-5.527-6.656-6.992-7.589-4.405-2.805-9.953-3.115-14.643-.821l-58.027 28.376c-1.525.746-3.148 1.254-4.822 1.509l-46.206 7.044c-2.49.382-5.077.185-7.482-.563l-80.526-25.057c-21.008-6.533-44.016 2.679-54.704 21.908-7.917 14.243-7.787 31.865.34 45.99l22.196 38.572c1.457 2.533 2.227 5.415 2.227 8.335v32.796c0 9.857 3.045 19.296 8.804 27.294l50.447 70.309c42.879-11.478 82.191-34.045 114.418-66.282 48.352-48.366 74.979-112.672 74.979-181.071z" fill="#bce339"/><path d="m420.528 0c-50.074 0-90.812 40.729-90.812 90.79 0 33.541 36.027 79.35 66.25 111.872 6.325 6.806 15.277 10.708 24.562 10.708 9.284 0 18.236-3.902 24.561-10.708 30.223-32.521 66.251-78.33 66.251-111.872 0-50.061-40.738-90.79-90.812-90.79z" fill="#cc2929"/><g><g><path d="m420.528 106.686c7.846 0 15.363-6.899 15-15-.364-8.127-6.591-15-15-15-7.846 0-15.363 6.899-15 15 .364 8.127 6.591 15 15 15z" fill="#d7eaeb"/></g></g><g fill="#8cbb41"><path d="m254.979 39.916v115.666c20.445-7.844 34.779-27.805 34.779-50.383v-8.167c0-14.404-5.609-27.947-15.794-38.132z"/><path d="m505.48 248.549c-4.405-2.805-9.953-3.115-14.643-.821l-58.027 28.376c-1.525.746-3.148 1.254-4.822 1.509l-46.206 7.044c-2.49.382-5.077.185-7.482-.563l-80.526-25.057c-13.351-4.152-27.504-1.937-38.795 5.159v89.795l6.627 11.516c1.457 2.533 2.227 5.415 2.227 8.335v32.796c0 9.857 3.045 19.296 8.804 27.294l50.447 70.309c42.879-11.478 82.191-34.045 114.418-66.282 48.351-48.366 74.979-112.672 74.979-181.071 0-.25-.008-.5-.009-.75-2.878-3.708-5.527-6.657-6.992-7.589z"/></g></g></svg>